<?xml version="1.0" encoding="utf-8"?>
<svg xmlns="http://www.w3.org/2000/svg">
  <defs>

<symbol id="speed" viewBox="0 0 48 38">
<path d="M40.3287 14.3334C42.1392 14.3497 43.8731 15.0667 45.1663 16.3339C46.4596 17.6012 47.2117 19.3201 47.2648 21.1299C47.318 22.9398 46.668 24.6998 45.4513 26.0408C44.2346 27.3817 42.5458 28.1992 40.7393 28.3217L40.2563 28.3334L40.0183 28.3497H37.3C37.7433 29.22 37.9953 30.2047 37.9953 31.2477C37.9953 34.8177 35.305 37.6807 31.7537 37.6807C28.242 37.6807 26.1187 35.6227 25.547 32.7737C25.4711 32.3251 25.5728 31.8647 25.8306 31.4898C26.0884 31.115 26.4821 30.8553 26.9281 30.7658C27.3742 30.6763 27.8375 30.764 28.22 31.0103C28.6025 31.2567 28.874 31.6422 28.977 32.0854C29.243 33.4037 30.0433 34.1807 31.7537 34.1807C33.3217 34.1807 34.4953 32.9324 34.4953 31.25C34.4953 29.6424 33.17 28.3334 31.525 28.3334L2.38633 28.3497C1.93978 28.3542 1.5084 28.1879 1.1805 27.8847C0.852607 27.5816 0.653015 27.1645 0.622597 26.719C0.59218 26.2734 0.733237 25.8331 1.01689 25.4882C1.30053 25.1433 1.70531 24.9199 2.14833 24.8637L2.38633 24.8497H31.2893L31.525 24.8334C31.6767 24.8334 31.8237 24.838 31.9707 24.8474L40.072 24.852L40.198 24.838L40.6647 24.817C41.3162 24.753 41.9368 24.5074 42.4558 24.1083C42.9748 23.7092 43.3714 23.1726 43.6006 22.5593C43.8299 21.946 43.8825 21.2808 43.7526 20.6391C43.6226 19.9974 43.3153 19.405 42.8655 18.9293C42.4157 18.4535 41.8415 18.1135 41.2081 17.9478C40.5747 17.7821 39.9075 17.7973 39.2824 17.9918C38.6572 18.1863 38.0992 18.5523 37.6716 19.0481C37.2441 19.5439 36.9641 20.1497 36.8637 20.7967L36.8007 21.3544C36.7222 21.7974 36.476 22.1932 36.1134 22.4595C35.7508 22.7258 35.2995 22.8423 34.8533 22.7846C34.407 22.7269 34.0002 22.4996 33.7171 22.1499C33.4341 21.8001 33.2966 21.3548 33.3333 20.9064C33.4427 19.1258 34.2275 17.4542 35.5275 16.2326C36.8276 15.0111 38.5448 14.3318 40.3287 14.3334ZM24 19H2.43066C1.98727 18.9999 1.56047 18.8314 1.23648 18.5287C0.912497 18.226 0.71549 17.8117 0.685269 17.3693C0.655048 16.9269 0.793865 16.4896 1.07367 16.1457C1.35348 15.8017 1.75341 15.5768 2.19266 15.5164L2.43066 15.5H24C25.1537 15.5 26.2815 15.1579 27.2408 14.5169C28.2001 13.876 28.9478 12.9649 29.3893 11.899C29.8308 10.8331 29.9463 9.66021 29.7212 8.52866C29.4962 7.3971 28.9406 6.3577 28.1248 5.5419C27.309 4.72609 26.2696 4.17052 25.138 3.94544C24.0065 3.72036 22.8336 3.83588 21.7677 4.27739C20.7018 4.7189 19.7907 5.46657 19.1498 6.42586C18.5088 7.38515 18.1667 8.51296 18.1667 9.66669C18.1667 10.1308 17.9823 10.5759 17.6541 10.9041C17.3259 11.2323 16.8808 11.4167 16.4167 11.4167C15.9525 11.4167 15.5074 11.2323 15.1792 10.9041C14.851 10.5759 14.6667 10.1308 14.6667 9.66669C14.6667 7.8427 15.2012 6.05871 16.2041 4.53518C17.207 3.01165 18.6343 1.81537 20.3096 1.09417C21.985 0.372977 23.8349 0.158483 25.6309 0.477198C27.4268 0.795913 29.09 1.63387 30.4148 2.8875C31.7397 4.14113 32.6683 5.7555 33.0857 7.53108C33.5031 9.30666 33.3911 11.1656 32.7635 12.8783C32.1359 14.5909 31.0203 16.0821 29.5544 17.1676C28.0886 18.253 26.3369 18.8852 24.5157 18.986L24.0023 19H2.42833H24Z" />
</symbol>

<symbol  id="pressure" viewBox="0 0 24 48">
<path d="M12 0.666668C13.9366 0.666507 15.7999 1.40727 17.2078 2.73705C18.6157 4.06684 19.4614 5.88487 19.5717 7.81833L19.5833 8.25L19.5857 26.8047L19.7723 26.9657C21.9468 28.9043 23.3155 31.5876 23.6083 34.486L23.6527 35.074L23.6667 35.6667C23.667 37.5889 23.1924 39.4814 22.285 41.176C21.3776 42.8706 20.0655 44.3147 18.4655 45.38C16.8654 46.4453 15.0269 47.0987 13.1135 47.2821C11.2 47.4656 9.27088 47.1734 7.49756 46.4316C5.72424 45.6898 4.16169 44.5212 2.94884 43.0299C1.73598 41.5387 0.910397 39.7708 0.545485 37.8835C0.180573 35.9962 0.28764 34.048 0.857165 32.2121C1.42669 30.3762 2.44103 28.7094 3.81 27.36L4.23 26.9633L4.41433 26.8047L4.41667 8.25C4.41628 6.38638 5.10215 4.58787 6.34337 3.19774C7.58459 1.80761 9.29423 0.923207 11.146 0.713335L11.5707 0.678335L12 0.666668ZM12 4.16667C10.9749 4.16675 9.98724 4.55244 9.23335 5.24711C8.47945 5.94178 8.01443 6.89462 7.93066 7.91633L7.91667 8.25V28.536L7.19567 29.061C5.81814 30.063 4.78841 31.4707 4.25062 33.087C3.71282 34.7032 3.69389 36.4472 4.19647 38.0748C4.69904 39.7024 5.69797 41.1321 7.05342 42.1637C8.40887 43.1954 10.053 43.7774 11.7556 43.8283C13.4583 43.8792 15.1342 43.3964 16.5489 42.4475C17.9635 41.4986 19.046 40.1312 19.6449 38.5365C20.2438 36.9418 20.329 35.1998 19.8887 33.5543C19.4484 31.9088 18.5046 30.4421 17.1893 29.3597L16.8043 29.0633L16.088 28.5383L16.0833 8.25C16.0833 7.16703 15.6531 6.12842 14.8874 5.36265C14.1216 4.59688 13.083 4.16667 12 4.16667ZM12 14.6667C12.4641 14.6667 12.9092 14.851 13.2374 15.1792C13.5656 15.5074 13.75 15.9525 13.75 16.4167V30.1017C15.0801 30.5198 16.2166 31.4003 16.9537 32.5839C17.6907 33.7675 17.9796 35.1758 17.7681 36.554C17.5566 37.9322 16.8587 39.1891 15.8006 40.0971C14.7425 41.0052 13.3943 41.5044 12 41.5044C10.6057 41.5044 9.25747 41.0052 8.19941 40.0971C7.14134 39.1891 6.44338 37.9322 6.23187 36.554C6.02036 35.1758 6.30929 33.7675 7.04634 32.5839C7.7834 31.4003 8.91987 30.5198 10.25 30.1017V16.4167C10.25 15.9525 10.4344 15.5074 10.7626 15.1792C11.0908 14.851 11.5359 14.6667 12 14.6667Z"/>
</symbol>

<symbol id="direction" viewBox="0 0 43 43">
<path d="M1.93708e-05 16.7202C-0.00576863 17.075 0.0964031 17.4231 0.292988 17.7185C0.489572 18.0138 0.771283 18.2424 1.10077 18.374L17.9025 25.0957L24.6243 41.8992C24.7541 42.2243 24.9784 42.5029 25.2682 42.6991C25.5581 42.8953 25.9 43.0001 26.25 43H26.278C26.6325 42.9944 26.9768 42.8813 27.2656 42.6757C27.5543 42.4701 27.7738 42.1816 27.895 41.8485L41.895 3.3485C42.0096 3.03529 42.0323 2.69586 41.9605 2.37018C41.8887 2.04449 41.7252 1.74612 41.4895 1.5102C41.2538 1.27428 40.9555 1.11063 40.6299 1.03853C40.3043 0.966435 39.9648 0.988888 39.6515 1.10325L1.15152 15.1032C0.81826 15.2248 0.529739 15.4446 0.324125 15.7336C0.118511 16.0227 0.00549195 16.3673 1.93708e-05 16.722V16.7202Z"/>
</symbol>


  
  </defs>
</svg>